<?xml version="1.0" standalone="no"?>
<!DOCTYPE svg PUBLIC "-//W3C//DTD SVG 20010904//EN"
 "http://www.w3.org/TR/2001/REC-SVG-20010904/DTD/svg10.dtd">
<svg version="1.0" xmlns="http://www.w3.org/2000/svg"
 width="200.000000pt" height="110.000000pt" viewBox="0 0 200.000000 110.000000"
 preserveAspectRatio="xMidYMid meet">

<g transform="translate(0.000000,110.000000) scale(0.100000,-0.100000)"
fill="#000000" stroke="none">
<path d="M1180 978 c0 -18 -7 -201 -15 -407 -16 -410 -14 -436 34 -470 28 -20
43 -21 329 -21 l300 0 31 29 31 29 0 135 c0 74 -3 149 -6 166 l-7 31 -19 -40
c-30 -60 -83 -103 -123 -98 -30 3 -35 0 -75 -65 -38 -62 -44 -67 -58 -54 -13
14 -11 23 28 89 87 147 170 268 185 268 19 0 19 -15 -2 -46 -16 -25 -16 -25
11 -18 16 4 32 1 43 -7 17 -15 17 6 -4 394 l-6 117 -338 0 -339 0 0 -32z m212
-79 c17 -9 19 -17 14 -50 -6 -37 -5 -39 37 -64 56 -32 109 -33 162 -1 36 23
40 28 40 67 0 56 27 75 56 40 24 -30 24 -33 -6 -65 -14 -15 -25 -31 -25 -36 0
-4 -21 -22 -47 -39 -64 -43 -130 -43 -195 -2 -25 16 -49 39 -53 50 -3 12 -10
21 -15 21 -5 0 -14 9 -20 21 -9 16 -8 26 5 45 18 27 19 28 47 13z m158 -248
c0 -5 -23 -46 -51 -91 -38 -62 -45 -78 -28 -66 24 17 64 21 72 9 3 -5 -8 -35
-24 -68 -15 -32 -26 -62 -23 -65 6 -5 15 6 53 68 39 64 120 95 151 57 17 -21
-10 -81 -56 -126 -31 -30 -39 -33 -114 -36 -91 -4 -100 3 -81 58 6 18 10 33 8
35 -1 1 -20 -19 -42 -46 -42 -52 -82 -68 -72 -29 5 20 5 20 -14 3 -14 -13 -37
-18 -72 -19 -46 0 -52 2 -55 23 -4 25 25 43 38 22 5 -8 17 -10 34 -6 29 7 26
26 -4 26 -53 0 -68 42 -29 79 32 30 107 53 130 40 23 -12 24 -23 3 -43 -19
-19 -41 -21 -46 -4 -3 9 -13 7 -33 -6 l-29 -19 34 -12 c19 -6 40 -21 45 -32
10 -18 16 -10 58 71 73 140 104 186 127 186 11 0 20 -4 20 -9z"/>
<path d="M1601 435 c-35 -40 -42 -72 -13 -56 21 11 46 39 61 69 19 36 -12 28
-48 -13z"/>
<path d="M504 538 c-56 -92 -124 -188 -133 -188 -4 0 2 48 14 108 l21 107 -23
3 c-15 2 -31 -5 -43 -20 -35 -41 -127 -181 -165 -250 -34 -62 -35 -68 -17 -68
13 0 27 14 42 43 12 23 50 85 84 137 68 105 77 103 53 -13 -26 -121 -28 -145
-17 -152 7 -4 23 4 37 16 35 34 213 302 213 322 0 35 -28 15 -66 -45z"/>
<path d="M944 515 c-10 -15 -26 -25 -41 -25 -29 0 -65 -18 -59 -29 3 -5 17 -6
31 -3 14 2 25 1 25 -3 0 -4 -16 -34 -36 -67 -21 -35 -39 -78 -42 -103 -4 -37
-2 -44 17 -50 15 -5 33 1 57 17 46 31 47 57 0 29 -18 -12 -36 -21 -40 -21 -17
0 -1 53 37 120 39 69 45 75 85 85 42 10 48 25 10 25 -21 0 -24 20 -6 38 9 9 8
12 -5 12 -9 0 -24 -11 -33 -25z"/>
<path d="M1772 418 c-23 -23 -40 -44 -37 -46 8 -8 54 27 71 53 27 42 10 38
-34 -7z"/>
<path d="M775 420 c-33 -35 -45 -38 -45 -11 0 26 -15 34 -40 21 -24 -13 -28
-53 -5 -44 10 4 15 0 15 -13 0 -21 -49 -73 -69 -73 -7 0 -24 -9 -38 -20 -27
-21 -78 -27 -88 -11 -7 12 21 40 52 52 31 12 30 33 -2 27 -14 -3 -25 -1 -25 3
0 16 49 41 69 34 14 -4 23 0 31 15 8 15 8 20 -2 21 -37 3 -66 -5 -96 -28 -26
-19 -33 -31 -29 -49 2 -15 -3 -30 -14 -40 -24 -21 -24 -36 -1 -57 21 -19 54
-22 83 -6 15 8 24 7 35 -2 12 -10 20 -6 45 24 17 21 34 37 39 37 5 0 10 -15
12 -32 4 -44 28 -47 70 -9 38 34 32 53 -8 22 -32 -25 -44 -20 -44 20 0 22 12
41 55 81 30 28 55 55 55 60 0 17 -28 7 -55 -22z"/>
</g>
</svg>
